<svg width="97" height="97" viewBox="0 0 97 97" fill="none" xmlns="http://www.w3.org/2000/svg">
<rect width="97" height="97" rx="20" fill="#DBDCFF"/>
<circle cx="48.0992" cy="47.2974" r="25.6529" fill="#5236FF"/>
<mask id="mask0_1_4040" style="mask-type:alpha" maskUnits="userSpaceOnUse" x="22" y="21" width="52" height="52">
<circle cx="48.0992" cy="47.2974" r="25.6529" fill="url(#paint0_linear_1_4040)"/>
</mask>
<g mask="url(#mask0_1_4040)">
</g>
<path d="M68.3958 78.7134C68.4198 75.4312 67.9082 72.1772 66.8903 69.1372C65.8723 66.0972 64.3679 63.3308 62.4629 60.9958C60.5579 58.6609 58.2897 56.8031 55.7877 55.5287C53.2857 54.2543 50.599 53.5881 47.8809 53.5682C45.1628 53.5483 42.4666 54.175 39.9462 55.4127C37.4258 56.6504 35.1306 58.4747 33.1917 60.7815C31.2527 63.0883 29.7079 65.8324 28.6456 68.8572C27.5832 71.8819 27.024 75.1281 27 78.4103L68.3958 78.7134Z" fill="#E1E3F9"/>
<path d="M57.7186 40.8842C57.7186 46.1971 53.4116 50.5041 48.0988 50.5041C42.7859 50.5041 38.4789 46.1971 38.4789 40.8842C38.4789 35.5714 42.7859 31.2644 48.0988 31.2644C53.4116 31.2644 57.7186 35.5714 57.7186 40.8842Z" fill="#E1E3F9"/>
<defs>
<linearGradient id="paint0_linear_1_4040" x1="26.4546" y1="26.8553" x2="72.1488" y2="74.1528" gradientUnits="userSpaceOnUse">
<stop stop-color="#5860C2"/>
<stop offset="1" stop-color="#292F8D"/>
</linearGradient>
</defs>
</svg>
