<svg width="59" height="36" viewBox="0 0 59 36" fill="none" xmlns="http://www.w3.org/2000/svg">
<path fill-rule="evenodd" clip-rule="evenodd" d="M48.9936 13.3516C54.4754 14.173 58.679 18.9018 58.679 24.6124C58.679 30.9013 53.5809 35.9995 47.292 35.9995H31.9474C31.9222 35.9996 31.8971 35.9996 31.872 35.9996C31.8468 35.9996 31.8217 35.9996 31.7966 35.9995H11.7074C5.41847 35.9995 0.320312 30.9013 0.320312 24.6124C0.320312 18.3235 5.41848 13.2253 11.7074 13.2253H14.7866C16.9412 5.82376 23.7749 0.415039 31.872 0.415039C40.015 0.415039 46.8803 5.88537 48.9936 13.3516Z" fill="#5236FF"/>
<mask id="mask0_1_4810" style="mask-type:alpha" maskUnits="userSpaceOnUse" x="0" y="0" width="59" height="36">
<path fill-rule="evenodd" clip-rule="evenodd" d="M48.9936 13.3521C54.4754 14.1735 58.679 18.9023 58.679 24.6129C58.679 30.9018 53.5809 36 47.292 36H31.9474C31.9222 36.0001 31.8971 36.0001 31.872 36.0001C31.8468 36.0001 31.8217 36.0001 31.7966 36H11.7074C5.41847 36 0.320312 30.9018 0.320312 24.6129C0.320312 18.324 5.41848 13.2258 11.7074 13.2258H14.7866C16.9412 5.82425 23.7749 0.415527 31.872 0.415527C40.015 0.415527 46.8803 5.88585 48.9936 13.3521Z" fill="#5236FF"/>
</mask>
<g mask="url(#mask0_1_4810)">
<path d="M27.9343 10.7564L-2.05176 40.7446L62.475 40.1758L33.0434 10.6514" fill="#644AFF"/>
</g>
<path d="M30.5408 30.8859C29.4478 30.8859 28.5615 29.9931 28.5615 28.8913V10.9501C28.5619 9.84838 29.4478 8.95557 30.5408 8.95557C31.6338 8.95557 32.5201 9.84838 32.5201 10.9501V28.8913C32.5201 29.9927 31.6341 30.8859 30.5408 30.8859Z" fill="white"/>
<path d="M38.8705 19.3441C39.6433 18.5653 39.6433 17.3022 38.8705 16.5234L31.9403 9.53969C31.1674 8.76086 29.914 8.76086 29.1412 9.53969C28.3683 10.3185 28.3683 11.5816 29.1412 12.3604L36.0714 19.3441C36.8446 20.123 38.0976 20.123 38.8705 19.3441Z" fill="white"/>
<path d="M22.2115 19.3441C21.4386 18.5653 21.4386 17.3022 22.2115 16.5234L29.1417 9.53969C29.9145 8.76086 31.1679 8.76086 31.9408 9.53969C32.7136 10.3185 32.7136 11.5816 31.9408 12.3604L25.0106 19.3441C24.2374 20.123 22.9844 20.123 22.2115 19.3441Z" fill="white"/>
</svg>
